[2026-03-15 12:11:03] [INFO] Jarvis Desktop launcher started.
[2026-03-15 12:11:03] [INFO] Runtime log path: C:\Jarvis\logs\runtime_2026-03-15_12-11-03.txt
[2026-03-15 12:11:03] [INFO] Launcher executable: C:\Users\anden\AppData\Local\Python\pythoncore-3.14-64\pythonw.exe
[2026-03-15 12:11:03] [INFO] Root directory: C:\Jarvis
[2026-03-15 12:11:03] [INFO] Target script: C:\Jarvis\jarvis_desktop_test.py
[2026-03-15 12:11:03] [INFO] Diagnostics script: C:\Jarvis\desktop\jarvis_diagnostics.pyw
[2026-03-15 12:11:03] [INFO] Recovery attempts allowed: 3
[2026-03-15 12:11:03] [INFO] Voice hook ready: C:\Jarvis\jarvis_voice.py
[2026-03-15 12:11:03] [INFO] Starting desktop renderer process. attempt=1
[2026-03-15 12:11:03] [INFO] Child executable: C:\Users\anden\AppData\Local\Python\pythoncore-3.14-64\pythonw.exe
[2026-03-15 12:11:03] [STDOUT] Jarvis Desktop Concept 1 - Version 1.02
[2026-03-15 12:11:03] [STDOUT] Hotkey: Ctrl + Alt + End
[2026-03-15 12:11:03] [STDERR] Traceback (most recent call last):
[2026-03-15 12:11:03] [STDERR]   File "C:\Jarvis\jarvis_desktop_test.py", line 44, in <module>
[2026-03-15 12:11:03] [STDERR]     raise SystemExit(main())
[2026-03-15 12:11:03] [STDERR]                      ~~~~^^
[2026-03-15 12:11:03] [STDERR]   File "C:\Jarvis\jarvis_desktop_test.py", line 36, in main
[2026-03-15 12:11:03] [STDERR]     raise RuntimeError("Jarvis test crash triggered intentionally")
[2026-03-15 12:11:03] [STDERR] RuntimeError: Jarvis test crash triggered intentionally
[2026-03-15 12:11:03] [INFO] Desktop renderer exited. exit_code=1
[2026-03-15 12:11:03] [WARN] Recovery attempt 1/3
[2026-03-15 12:11:04] [INFO] Starting desktop renderer process. attempt=2
[2026-03-15 12:11:04] [INFO] Child executable: C:\Users\anden\AppData\Local\Python\pythoncore-3.14-64\pythonw.exe
[2026-03-15 12:11:04] [STDOUT] Jarvis Desktop Concept 1 - Version 1.02
[2026-03-15 12:11:04] [STDOUT] Hotkey: Ctrl + Alt + End
[2026-03-15 12:11:04] [STDERR] Traceback (most recent call last):
[2026-03-15 12:11:04] [STDERR]   File "C:\Jarvis\jarvis_desktop_test.py", line 44, in <module>
[2026-03-15 12:11:04] [STDERR]     raise SystemExit(main())
[2026-03-15 12:11:04] [STDERR]                      ~~~~^^
[2026-03-15 12:11:04] [STDERR]   File "C:\Jarvis\jarvis_desktop_test.py", line 36, in main
[2026-03-15 12:11:04] [STDERR]     raise RuntimeError("Jarvis test crash triggered intentionally")
[2026-03-15 12:11:04] [STDERR] RuntimeError: Jarvis test crash triggered intentionally
[2026-03-15 12:11:04] [INFO] Desktop renderer exited. exit_code=1
[2026-03-15 12:11:04] [WARN] Recovery attempt 2/3
[2026-03-15 12:11:06] [INFO] Starting desktop renderer process. attempt=3
[2026-03-15 12:11:06] [INFO] Child executable: C:\Users\anden\AppData\Local\Python\pythoncore-3.14-64\pythonw.exe
[2026-03-15 12:11:06] [STDOUT] Jarvis Desktop Concept 1 - Version 1.02
[2026-03-15 12:11:06] [STDOUT] Hotkey: Ctrl + Alt + End
[2026-03-15 12:11:06] [STDERR] Traceback (most recent call last):
[2026-03-15 12:11:06] [STDERR]   File "C:\Jarvis\jarvis_desktop_test.py", line 44, in <module>
[2026-03-15 12:11:06] [STDERR]     raise SystemExit(main())
[2026-03-15 12:11:06] [STDERR]                      ~~~~^^
[2026-03-15 12:11:06] [STDERR]   File "C:\Jarvis\jarvis_desktop_test.py", line 36, in main
[2026-03-15 12:11:06] [STDERR]     raise RuntimeError("Jarvis test crash triggered intentionally")
[2026-03-15 12:11:06] [STDERR] RuntimeError: Jarvis test crash triggered intentionally
[2026-03-15 12:11:06] [INFO] Desktop renderer exited. exit_code=1
[2026-03-15 12:11:06] [ERROR] Crash log written: C:\Jarvis\logs\crash\crash_2026-03-15_12-11-06.txt
[2026-03-15 12:11:06] [INFO] Trying voice line 'Uhm..... Sir, I seem to be malfunctioning.' using voice --text --mode
[2026-03-15 12:11:13] [VOICE_STDOUT] ffmpeg version 2026-03-12-git-9dc44b43b2-essentials_build-www.gyan.dev Copyright (c) 2000-2026 the FFmpeg developers
[2026-03-15 12:11:13] [VOICE_STDOUT]   built with gcc 15.2.0 (Rev11, Built by MSYS2 project)
[2026-03-15 12:11:13] [VOICE_STDOUT]   configuration: --enable-gpl --enable-version3 --enable-static --disable-w32threads --disable-autodetect --enable-cairo --enable-fontconfig --enable-iconv --enable-gnutls --enable-libxml2 --enable-gmp --enable-bzlib --enable-lzma --enable-zlib --enable-libsrt --enable-libssh --enable-libzmq --enable-avisynth --enable-sdl2 --enable-libwebp --enable-libx264 --enable-libx265 --enable-libxvid --enable-libaom --enable-libopenjpeg --enable-libvpx --enable-mediafoundation --enable-libass --enable-libfreetype --enable-libfribidi --enable-libharfbuzz --enable-libvidstab --enable-libvmaf --enable-libzimg --enable-amf --enable-cuda-llvm --enable-cuvid --enable-dxva2 --enable-d3d11va --enable-d3d12va --enable-ffnvcodec --enable-libvpl --enable-nvdec --enable-nvenc --enable-vaapi --enable-openal --enable-libgme --enable-libopenmpt --enable-libopencore-amrwb --enable-libmp3lame --enable-libtheora --enable-libvo-amrwbenc --enable-libgsm --enable-libopencore-amrnb --enable-libopus --enable-libspeex --enable-libvorbis --enable-librubberband
[2026-03-15 12:11:13] [VOICE_STDOUT]   libavutil      60. 27.100 / 60. 27.100
[2026-03-15 12:11:13] [VOICE_STDOUT]   libavcodec     62. 29.100 / 62. 29.100
[2026-03-15 12:11:13] [VOICE_STDOUT]   libavformat    62. 13.100 / 62. 13.100
[2026-03-15 12:11:13] [VOICE_STDOUT]   libavdevice    62.  4.100 / 62.  4.100
[2026-03-15 12:11:13] [VOICE_STDOUT]   libavfilter    11. 15.101 / 11. 15.101
[2026-03-15 12:11:13] [VOICE_STDOUT]   libswscale      9.  6.100 /  9.  6.100
[2026-03-15 12:11:13] [VOICE_STDOUT]   libswresample   6.  4.100 /  6.  4.100
[2026-03-15 12:11:13] [VOICE_STDOUT] [in#0/mp3 @ 0000018ffec86a00] Estimating duration from bitrate, this may be inaccurate
[2026-03-15 12:11:13] [VOICE_STDOUT] Input #0, mp3, from 'C:\Users\anden\AppData\Local\Temp\tmpwpwu7np1.mp3':
[2026-03-15 12:11:13] [VOICE_STDOUT]   Duration: 00:00:05.14, start: 0.000000, bitrate: 48 kb/s
[2026-03-15 12:11:13] [VOICE_STDOUT]   Stream #0:0: Audio: mp3 (mp3float), 24000 Hz, mono, fltp, 48 kb/s
[2026-03-15 12:11:13] [VOICE_STDOUT] [Parsed_acrusher_2 @ 0000018ffec9e000] [Eval @ 00000038ffffce70] Undefined constant or missing '(' in 't*1.7)'
[2026-03-15 12:11:13] [VOICE_STDOUT] [Parsed_acrusher_2 @ 0000018ffec9e000] Unable to parse "mix" option value "0.55+0.45*sin(2*PI*t*1.7)"
[2026-03-15 12:11:13] [VOICE_STDOUT] [fc#-1 @ 0000018ffec98a00] Error applying option 'mix' to filter 'acrusher': Invalid argument
[2026-03-15 12:11:13] [VOICE_STDOUT] Error opening output file C:\Users\anden\AppData\Local\Temp\tmp5iyuwnz_.wav.
[2026-03-15 12:11:13] [VOICE_STDOUT] Error opening output files: Invalid argument
[2026-03-15 12:11:13] [VOICE_STDERR] [mp3 @ 00000251C506B5C0] Estimating duration from bitrate, this may be inaccurate
[2026-03-15 12:11:13] [VOICE_STDERR] Input #0, mp3, from 'C:/Users/anden/AppData/Local/Temp/tmpwpwu7np1.mp3':
[2026-03-15 12:11:13] [VOICE_STDERR]   Duration: 00:00:05.14, start: 0.000000, bitrate: 48 kb/s
[2026-03-15 12:11:13] [VOICE_STDERR]   Stream #0:0: Audio: mp3 (mp3float), 24000 Hz, mono, fltp, 48 kb/s
[2026-03-15 12:11:13] [INFO] Voice line completed: Uhm..... Sir, I seem to be malfunctioning.
[2026-03-15 12:11:13] [INFO] Failure voice step 1/3 success=True line=Uhm..... Sir, I seem to be malfunctioning.
[2026-03-15 12:11:14] [INFO] Trying voice line 'Attempting restart.' using voice --text --mode
[2026-03-15 12:11:18] [VOICE_STDOUT] ffmpeg version 2026-03-12-git-9dc44b43b2-essentials_build-www.gyan.dev Copyright (c) 2000-2026 the FFmpeg developers
[2026-03-15 12:11:18] [VOICE_STDOUT]   built with gcc 15.2.0 (Rev11, Built by MSYS2 project)
[2026-03-15 12:11:18] [VOICE_STDOUT]   configuration: --enable-gpl --enable-version3 --enable-static --disable-w32threads --disable-autodetect --enable-cairo --enable-fontconfig --enable-iconv --enable-gnutls --enable-libxml2 --enable-gmp --enable-bzlib --enable-lzma --enable-zlib --enable-libsrt --enable-libssh --enable-libzmq --enable-avisynth --enable-sdl2 --enable-libwebp --enable-libx264 --enable-libx265 --enable-libxvid --enable-libaom --enable-libopenjpeg --enable-libvpx --enable-mediafoundation --enable-libass --enable-libfreetype --enable-libfribidi --enable-libharfbuzz --enable-libvidstab --enable-libvmaf --enable-libzimg --enable-amf --enable-cuda-llvm --enable-cuvid --enable-dxva2 --enable-d3d11va --enable-d3d12va --enable-ffnvcodec --enable-libvpl --enable-nvdec --enable-nvenc --enable-vaapi --enable-openal --enable-libgme --enable-libopenmpt --enable-libopencore-amrwb --enable-libmp3lame --enable-libtheora --enable-libvo-amrwbenc --enable-libgsm --enable-libopencore-amrnb --enable-libopus --enable-libspeex --enable-libvorbis --enable-librubberband
[2026-03-15 12:11:18] [VOICE_STDOUT]   libavutil      60. 27.100 / 60. 27.100
[2026-03-15 12:11:18] [VOICE_STDOUT]   libavcodec     62. 29.100 / 62. 29.100
[2026-03-15 12:11:18] [VOICE_STDOUT]   libavformat    62. 13.100 / 62. 13.100
[2026-03-15 12:11:18] [VOICE_STDOUT]   libavdevice    62.  4.100 / 62.  4.100
[2026-03-15 12:11:18] [VOICE_STDOUT]   libavfilter    11. 15.101 / 11. 15.101
[2026-03-15 12:11:18] [VOICE_STDOUT]   libswscale      9.  6.100 /  9.  6.100
[2026-03-15 12:11:18] [VOICE_STDOUT]   libswresample   6.  4.100 /  6.  4.100
[2026-03-15 12:11:18] [VOICE_STDOUT] [in#0/mp3 @ 000001bc26c16a00] Estimating duration from bitrate, this may be inaccurate
[2026-03-15 12:11:18] [VOICE_STDOUT] Input #0, mp3, from 'C:\Users\anden\AppData\Local\Temp\tmp4jl_z2lb.mp3':
[2026-03-15 12:11:18] [VOICE_STDOUT]   Duration: 00:00:02.66, start: 0.000000, bitrate: 48 kb/s
[2026-03-15 12:11:18] [VOICE_STDOUT]   Stream #0:0: Audio: mp3 (mp3float), 24000 Hz, mono, fltp, 48 kb/s
[2026-03-15 12:11:18] [VOICE_STDOUT] [Parsed_acrusher_2 @ 000001bc26c2df80] [Eval @ 0000004390bfd190] Undefined constant or missing '(' in 't*1.7)'
[2026-03-15 12:11:18] [VOICE_STDOUT] [Parsed_acrusher_2 @ 000001bc26c2df80] Unable to parse "mix" option value "0.55+0.45*sin(2*PI*t*1.7)"
[2026-03-15 12:11:18] [VOICE_STDOUT] [fc#-1 @ 000001bc26c289c0] Error applying option 'mix' to filter 'acrusher': Invalid argument
[2026-03-15 12:11:18] [VOICE_STDOUT] Error opening output file C:\Users\anden\AppData\Local\Temp\tmpzbicxcym.wav.
[2026-03-15 12:11:18] [VOICE_STDOUT] Error opening output files: Invalid argument
[2026-03-15 12:11:18] [VOICE_STDERR] [mp3 @ 000002E3290F89C0] Estimating duration from bitrate, this may be inaccurate
[2026-03-15 12:11:18] [VOICE_STDERR] Input #0, mp3, from 'C:/Users/anden/AppData/Local/Temp/tmp4jl_z2lb.mp3':
[2026-03-15 12:11:18] [VOICE_STDERR]   Duration: 00:00:02.66, start: 0.000000, bitrate: 48 kb/s
[2026-03-15 12:11:18] [VOICE_STDERR]   Stream #0:0: Audio: mp3 (mp3float), 24000 Hz, mono, fltp, 48 kb/s
[2026-03-15 12:11:18] [INFO] Voice line completed: Attempting restart.
[2026-03-15 12:11:18] [INFO] Failure voice step 2/3 success=True line=Attempting restart.
[2026-03-15 12:11:19] [INFO] Trying voice line 'Restart failed.' using voice --text --mode
[2026-03-15 12:11:23] [VOICE_STDOUT] ffmpeg version 2026-03-12-git-9dc44b43b2-essentials_build-www.gyan.dev Copyright (c) 2000-2026 the FFmpeg developers
[2026-03-15 12:11:23] [VOICE_STDOUT]   built with gcc 15.2.0 (Rev11, Built by MSYS2 project)
[2026-03-15 12:11:23] [VOICE_STDOUT]   configuration: --enable-gpl --enable-version3 --enable-static --disable-w32threads --disable-autodetect --enable-cairo --enable-fontconfig --enable-iconv --enable-gnutls --enable-libxml2 --enable-gmp --enable-bzlib --enable-lzma --enable-zlib --enable-libsrt --enable-libssh --enable-libzmq --enable-avisynth --enable-sdl2 --enable-libwebp --enable-libx264 --enable-libx265 --enable-libxvid --enable-libaom --enable-libopenjpeg --enable-libvpx --enable-mediafoundation --enable-libass --enable-libfreetype --enable-libfribidi --enable-libharfbuzz --enable-libvidstab --enable-libvmaf --enable-libzimg --enable-amf --enable-cuda-llvm --enable-cuvid --enable-dxva2 --enable-d3d11va --enable-d3d12va --enable-ffnvcodec --enable-libvpl --enable-nvdec --enable-nvenc --enable-vaapi --enable-openal --enable-libgme --enable-libopenmpt --enable-libopencore-amrwb --enable-libmp3lame --enable-libtheora --enable-libvo-amrwbenc --enable-libgsm --enable-libopencore-amrnb --enable-libopus --enable-libspeex --enable-libvorbis --enable-librubberband
[2026-03-15 12:11:23] [VOICE_STDOUT]   libavutil      60. 27.100 / 60. 27.100
[2026-03-15 12:11:23] [VOICE_STDOUT]   libavcodec     62. 29.100 / 62. 29.100
[2026-03-15 12:11:23] [VOICE_STDOUT]   libavformat    62. 13.100 / 62. 13.100
[2026-03-15 12:11:23] [VOICE_STDOUT]   libavdevice    62.  4.100 / 62.  4.100
[2026-03-15 12:11:23] [VOICE_STDOUT]   libavfilter    11. 15.101 / 11. 15.101
[2026-03-15 12:11:23] [VOICE_STDOUT]   libswscale      9.  6.100 /  9.  6.100
[2026-03-15 12:11:23] [VOICE_STDOUT]   libswresample   6.  4.100 /  6.  4.100
[2026-03-15 12:11:23] [VOICE_STDOUT] [in#0/mp3 @ 00000236452469c0] Estimating duration from bitrate, this may be inaccurate
[2026-03-15 12:11:23] [VOICE_STDOUT] Input #0, mp3, from 'C:\Users\anden\AppData\Local\Temp\tmp8gk9vasd.mp3':
[2026-03-15 12:11:23] [VOICE_STDOUT]   Duration: 00:00:02.57, start: 0.000000, bitrate: 48 kb/s
[2026-03-15 12:11:23] [VOICE_STDOUT]   Stream #0:0: Audio: mp3 (mp3float), 24000 Hz, mono, fltp, 48 kb/s
[2026-03-15 12:11:23] [VOICE_STDOUT] [Parsed_acrusher_2 @ 000002364525df40] [Eval @ 000000430bffd000] Undefined constant or missing '(' in 't*1.7)'
[2026-03-15 12:11:23] [VOICE_STDOUT] [Parsed_acrusher_2 @ 000002364525df40] Unable to parse "mix" option value "0.55+0.45*sin(2*PI*t*1.7)"
[2026-03-15 12:11:23] [VOICE_STDOUT] [fc#-1 @ 000002364525a880] Error applying option 'mix' to filter 'acrusher': Invalid argument
[2026-03-15 12:11:23] [VOICE_STDOUT] Error opening output file C:\Users\anden\AppData\Local\Temp\tmp5nygbh4s.wav.
[2026-03-15 12:11:23] [VOICE_STDOUT] Error opening output files: Invalid argument
[2026-03-15 12:11:23] [VOICE_STDERR] [mp3 @ 00000158CA7C1140] Estimating duration from bitrate, this may be inaccurate
[2026-03-15 12:11:23] [VOICE_STDERR] Input #0, mp3, from 'C:/Users/anden/AppData/Local/Temp/tmp8gk9vasd.mp3':
[2026-03-15 12:11:23] [VOICE_STDERR]   Duration: 00:00:02.57, start: 0.000000, bitrate: 48 kb/s
[2026-03-15 12:11:23] [VOICE_STDERR]   Stream #0:0: Audio: mp3 (mp3float), 24000 Hz, mono, fltp, 48 kb/s
[2026-03-15 12:11:23] [INFO] Voice line completed: Restart failed.
[2026-03-15 12:11:23] [INFO] Failure voice step 3/3 success=True line=Restart failed.
[2026-03-15 12:11:24] [INFO] Diagnostics process launched.
